<svg xmlns="http://www.w3.org/2000/svg" width="269.419" height="285.57" viewBox="0 0 269.419 285.57">
  <g id="logo" transform="translate(-291 -569.102)">
    <path id="Path_14" data-name="Path 14" d="M15.988,0H204.651a15.927,15.927,0,0,1,15.988,15.865V227.006c0,7.116-46.06,58.564-52.995,58.564H15.988A15.927,15.927,0,0,1,0,269.7V15.865A15.927,15.927,0,0,1,15.988,0Z" transform="translate(307.822 569.102)" fill="#fff"/>
    <path id="Icon_awesome-minus" data-name="Icon awesome-minus" d="M163.45,14.625H12.573C5.63,14.625,0,20.878,0,28.589V42.553c0,7.711,5.63,13.964,12.573,13.964H163.45c6.943,0,12.573-6.253,12.573-13.964V28.589C176.023,20.878,170.392,14.625,163.45,14.625Z" transform="translate(293.5 738.79)" fill="#fff" stroke="#fff" stroke-linecap="round" stroke-linejoin="round" stroke-width="5"/>
    <path id="Icon_awesome-minus-2" data-name="Icon awesome-minus" d="M163.45,14.625H12.573C5.63,14.625,0,20.878,0,28.589V42.553c0,7.711,5.63,13.964,12.573,13.964H163.45c6.943,0,12.573-6.253,12.573-13.964V28.589C176.023,20.878,170.392,14.625,163.45,14.625Z" transform="translate(293.5 627.79)" fill="#fff" stroke="#fff" stroke-linecap="round" stroke-linejoin="round" stroke-width="5"/>
    <path id="Icon_awesome-minus-3" data-name="Icon awesome-minus" d="M163.45,14.625H12.573C5.63,14.625,0,20.878,0,28.589V42.553c0,7.711,5.63,13.964,12.573,13.964H163.45c6.943,0,12.573-6.253,12.573-13.964V28.589C176.023,20.878,170.392,14.625,163.45,14.625Z" transform="translate(293.5 678.79)" fill="#fff" stroke="#fff" stroke-linecap="round" stroke-linejoin="round" stroke-width="5"/>
    <path id="Icon_awesome-check" data-name="Icon awesome-check" d="M50.271,112.784l-48.1-48.1a7.4,7.4,0,0,1,0-10.466L12.633,43.748a7.4,7.4,0,0,1,10.466,0L55.5,76.152,124.912,6.745a7.4,7.4,0,0,1,10.466,0l10.466,10.466a7.4,7.4,0,0,1,0,10.466L60.737,112.784A7.4,7.4,0,0,1,50.271,112.784Z" transform="translate(409.907 579.524)" fill="#fff" stroke="#fff" stroke-linecap="round" stroke-linejoin="round" stroke-width="5"/>
    <path id="Subtraction_1" data-name="Subtraction 1" d="M158.294,1528.739H15.1a15.1,15.1,0,0,1-15.1-15.1V1272.1A15.1,15.1,0,0,1,15.1,1257h178.14a15.1,15.1,0,0,1,15.1,15.1v203.769a9.091,9.091,0,0,1-.125,1.45c-1.613-.112-3.253-.126-4.5-.126-.408,0-.8,0-1.183,0l-1.008,0H172.608a13.154,13.154,0,0,0-13.139,13.14v28.906c0,.6-.011,1.282-.023,2v.013a71.358,71.358,0,0,0,.134,7.188A3.93,3.93,0,0,1,158.294,1528.739Z" transform="translate(313.876 -682)" fill="#58d1eb"/>
    <path id="Path_13" data-name="Path 13" d="M0,46.393,43.393,0H17.573C.235,0,0,4.025,0,17.573Z" transform="translate(478.118 800.088)" fill="#58d1eb"/>
    <path id="Icon_awesome-check-2" data-name="Icon awesome-check" d="M42.346,95.725,1.826,55.2a6.234,6.234,0,0,1,0-8.816l8.816-8.816a6.234,6.234,0,0,1,8.816,0l27.3,27.3L105.22,6.4a6.234,6.234,0,0,1,8.816,0l8.816,8.816a6.234,6.234,0,0,1,0,8.816l-71.69,71.69A6.234,6.234,0,0,1,42.346,95.725Z" transform="translate(429.907 582.924)" fill="#fff" stroke="#58d1eb" stroke-linecap="round" stroke-linejoin="round" stroke-width="5"/>
    <path id="Icon_awesome-minus-4" data-name="Icon awesome-minus" d="M88.315,14.625H6.793C3.042,14.625,0,19.8,0,26.189V37.753c0,6.386,3.042,11.564,6.793,11.564H88.315c3.751,0,6.793-5.179,6.793-11.564V26.189C95.109,19.8,92.066,14.625,88.315,14.625Z" transform="translate(297.5 631.159)" fill="#fff" stroke="#58d1eb" stroke-linecap="round" stroke-linejoin="round" stroke-width="5"/>
    <path id="Icon_awesome-minus-5" data-name="Icon awesome-minus" d="M163.45,14.625H12.573C5.63,14.625,0,19.8,0,26.189V37.753c0,6.386,5.63,11.564,12.573,11.564H163.45c6.943,0,12.573-5.179,12.573-11.564V26.189C176.023,19.8,170.392,14.625,163.45,14.625Z" transform="translate(297.5 682.487)" fill="#fff" stroke="#58d1eb" stroke-linecap="round" stroke-linejoin="round" stroke-width="5"/>
    <path id="Icon_awesome-minus-6" data-name="Icon awesome-minus" d="M163.45,14.625H12.573C5.63,14.625,0,19.8,0,26.189V37.753c0,6.386,5.63,11.564,12.573,11.564H163.45c6.943,0,12.573-5.179,12.573-11.564V26.189C176.023,19.8,170.392,14.625,163.45,14.625Z" transform="translate(297.5 742.874)" fill="#fff" stroke="#58d1eb" stroke-linecap="round" stroke-linejoin="round" stroke-width="5"/>
  </g>
</svg>
